<svg width="64" height="60" viewBox="0 0 64 60" fill="none" xmlns="http://www.w3.org/2000/svg">
<g id="bi:filetype-java">
<path id="Vector" fill-rule="evenodd" clip-rule="evenodd" d="M55.5883 16.875V41.25H51.6177V16.875H43.6765C42.0969 16.875 40.582 16.2824 39.4651 15.2275C38.3481 14.1726 37.7206 12.7418 37.7206 11.25V3.75H15.8824C14.8293 3.75 13.8194 4.14509 13.0748 4.84835C12.3301 5.55161 11.9118 6.50544 11.9118 7.5V41.25H7.94121V7.5C7.94121 5.51088 8.77787 3.60322 10.2671 2.1967C11.7564 0.790176 13.7763 0 15.8824 0L37.7206 0L55.5883 16.875ZM6.0393 56.9062C5.8203 56.347 5.71 55.755 5.71371 55.1587H8.75121C8.75845 55.5136 8.85799 55.8613 9.04107 56.1712C9.22389 56.4657 9.48849 56.7072 9.80623 56.8698C10.124 57.0324 10.4827 57.1099 10.8437 57.0938C11.5981 57.0938 12.154 56.8875 12.5193 56.4787C12.8846 56.0662 13.0672 55.485 13.0672 54.7313V44.4375H16.204V54.6562C16.204 56.3062 15.7355 57.5588 14.7865 58.425C13.8494 59.2875 12.5471 59.7188 10.8794 59.7188C10.1112 59.7318 9.34694 59.6124 8.62415 59.3663C8.0146 59.1474 7.46208 58.8072 7.00416 58.3687C6.58067 57.9482 6.25238 57.4506 6.0393 56.9062ZM21.8105 55.5788L20.5637 59.4338H17.3872L22.7158 44.4375H26.3925L31.6972 59.4338H28.3619L27.1152 55.5788H21.8105ZM26.4878 53.3662L24.5422 47.3062H24.4033L22.4577 53.37H26.4878V53.3662ZM35.7869 59.4338H39.567L44.8359 44.4375H41.3497L37.8239 56.205H37.673L34.1074 44.4375H30.4664L35.7869 59.4338ZM48.0442 55.5788L46.7974 59.4338H43.6209L48.9495 44.4375H52.6262L57.9309 59.4338H54.5956L53.3489 55.5788H48.0442ZM52.7215 53.3662L50.7759 47.3062H50.637L48.6914 53.37H52.7215V53.3662Z" fill="black"/>
</g>
</svg>
