<?xml version="1.0" standalone="no"?>
<!DOCTYPE svg PUBLIC "-//W3C//DTD SVG 20010904//EN"
 "http://www.w3.org/TR/2001/REC-SVG-20010904/DTD/svg10.dtd">
<svg version="1.0" xmlns="http://www.w3.org/2000/svg"
 width="1024.000000pt" height="1024.000000pt" viewBox="0 0 1024.000000 1024.000000"
 preserveAspectRatio="xMidYMid meet">

<g transform="translate(0.000000,1024.000000) scale(0.100000,-0.100000)"
fill="#000000" stroke="none">
<path d="M4805 9214 c-221 -22 -475 -60 -566 -84 l-39 -11 106 -91 c79 -68
104 -96 101 -109 -3 -11 -3 -19 -1 -19 2 0 140 30 307 66 166 36 397 85 512
109 116 24 269 56 342 71 73 16 130 30 128 33 -3 2 -44 10 -92 18 -85 13 -707
26 -798 17z"/>
<path d="M5135 9014 c-368 -79 -672 -143 -675 -144 -3 0 344 -175 770 -388
667 -332 770 -387 741 -390 -28 -3 -164 61 -814 383 -432 214 -783 383 -788
378 -5 -5 -76 -123 -158 -263 -118 -201 -147 -257 -135 -263 12 -7 12 -12 -2
-40 -49 -98 -1359 -2295 -1366 -2291 -26 16 7 -23 130 -154 76 -81 270 -291
432 -467 161 -176 307 -335 324 -353 22 -24 27 -35 18 -44 -8 -8 -16 -8 -31 3
-10 8 -213 225 -451 482 -238 258 -433 467 -435 465 -2 -2 19 -181 46 -398 26
-217 51 -423 55 -456 4 -34 10 -68 15 -75 7 -12 371 -44 732 -65 149 -8 212
-31 71 -26 -54 2 -89 0 -93 -7 -5 -7 -110 -3 -341 14 -184 14 -341 25 -347 25
-19 0 -17 -29 22 -342 66 -535 234 -1923 241 -1984 4 -44 3 -64 -6 -69 -17
-10 -26 8 -33 64 -3 25 -66 543 -141 1151 -74 608 -136 1123 -138 1145 l-3 40
-215 17 c-118 9 -218 17 -222 17 -13 2 -9 41 5 41 6 0 102 -7 211 -15 109 -9
201 -13 204 -10 5 5 -84 768 -97 835 -7 33 -20 11 -225 -400 -120 -239 -223
-438 -230 -442 -6 -4 -15 -9 -21 -11 -12 -5 -32 54 367 -1096 258 -744 345
-1007 336 -1012 -7 -4 -13 -7 -15 -6 -3 3 -137 388 -444 1270 -150 433 -276
787 -279 787 -3 0 -33 -96 -67 -213 -35 -116 -101 -342 -148 -502 -48 -159
-106 -360 -131 -445 -25 -85 -47 -163 -50 -172 -3 -11 0 -18 9 -18 11 0 -7
-69 -69 -277 -46 -153 -83 -284 -84 -292 0 -25 188 -298 311 -452 206 -256
578 -619 618 -604 9 4 103 36 209 72 158 54 195 64 203 52 11 -19 -9 -28 -203
-94 -89 -31 -166 -59 -171 -64 -15 -15 226 -189 433 -313 520 -313 1117 -510
1725 -569 170 -17 605 -17 770 0 1424 143 2653 989 3293 2267 221 442 360 933
413 1459 15 152 15 562 0 725 -37 397 -135 801 -283 1170 -61 152 -213 462
-236 483 -9 8 -388 135 -842 282 -1123 364 -1041 336 -1038 354 2 10 12 15 23
13 11 -2 422 -134 912 -293 491 -159 897 -289 903 -289 23 0 -172 289 -325
480 -497 623 -1195 1107 -1945 1347 -196 62 -492 134 -546 132 -16 -1 -330
-66 -699 -145z m876 -965 c553 -56 886 -359 939 -854 13 -115 3 -258 -25 -366
-80 -307 -335 -593 -651 -728 -39 -17 -63 -32 -54 -34 8 -3 56 -17 105 -32
241 -72 427 -205 554 -396 98 -145 147 -296 157 -484 20 -349 -106 -690 -346
-935 -276 -281 -675 -438 -1182 -466 l-128 -7 0 235 0 235 124 7 c213 11 367
45 503 110 303 146 457 404 440 736 -10 196 -58 313 -176 431 -113 112 -245
177 -446 219 -94 20 -289 40 -387 40 l-58 0 0 214 0 214 58 7 c341 40 645 178
793 359 169 206 208 516 95 751 -63 132 -168 221 -320 272 -75 25 -93 27 -251
27 -146 0 -182 -3 -255 -23 -46 -12 -98 -28 -115 -35 l-31 -13 -12 -124 c-8
-68 -23 -178 -35 -244 l-22 -120 -163 -3 -162 -2 2 427 3 427 95 34 c172 61
393 110 565 125 92 8 290 6 386 -4z m985 -1265 c14 -31 22 -59 19 -62 -3 -3
-5 0 -5 7 0 8 -6 11 -16 7 -10 -4 -19 4 -28 25 -11 27 -11 79 1 79 2 0 15 -25
29 -56z m54 -129 c0 -5 -5 -3 -10 5 -5 8 -10 20 -10 25 0 6 5 3 10 -5 5 -8 10
-19 10 -25z m-60 -50 c0 -5 -5 -3 -10 5 -5 8 -10 20 -10 25 0 6 5 3 10 -5 5
-8 10 -19 10 -25z m20 -50 c0 -5 -5 -3 -10 5 -5 8 -10 20 -10 25 0 6 5 3 10
-5 5 -8 10 -19 10 -25z m30 -70 c0 -5 -5 -3 -10 5 -5 8 -10 20 -10 25 0 6 5 3
10 -5 5 -8 10 -19 10 -25z m20 -50 c0 -5 -5 -3 -10 5 -5 8 -10 20 -10 25 0 6
5 3 10 -5 5 -8 10 -19 10 -25z m110 -70 c0 -5 -5 -3 -10 5 -5 8 -10 20 -10 25
0 6 5 3 10 -5 5 -8 10 -19 10 -25z m-60 -50 c0 -5 -5 -3 -10 5 -5 8 -10 20
-10 25 0 6 5 3 10 -5 5 -8 10 -19 10 -25z m20 -50 c0 -5 -5 -3 -10 5 -5 8 -10
20 -10 25 0 6 5 3 10 -5 5 -8 10 -19 10 -25z m30 -70 c0 -5 -5 -3 -10 5 -5 8
-10 20 -10 25 0 6 5 3 10 -5 5 -8 10 -19 10 -25z m20 -50 c0 -5 -5 -3 -10 5
-5 8 -10 20 -10 25 0 6 5 3 10 -5 5 -8 10 -19 10 -25z m-2300 -1663 l0 -1688
123 -13 c136 -14 322 -43 440 -67 l77 -17 0 -188 0 -189 -980 0 -980 0 0 190
c0 105 3 190 6 190 3 0 50 9 103 20 120 24 339 56 449 66 l82 7 0 1446 0 1447
-127 13 c-133 13 -302 39 -435 67 l-78 17 0 188 0 189 488 3 c268 1 565 3 660
5 l172 2 0 -1688z m2350 1543 c0 -5 -5 -3 -10 5 -5 8 -10 20 -10 25 0 6 5 3
10 -5 5 -8 10 -19 10 -25z m40 -35 c10 0 56 -101 154 -338 296 -718 304 -740
280 -749 -14 -5 -22 14 -264 597 -237 571 -217 518 -199 503 7 -7 20 -13 29
-13z m70 -35 c0 -5 -5 -3 -10 5 -5 8 -10 20 -10 25 0 6 5 3 10 -5 5 -8 10 -19
10 -25z m120 -290 c0 -5 -5 -3 -10 5 -5 8 -10 20 -10 25 0 6 5 3 10 -5 5 -8
10 -19 10 -25z m170 -410 c0 -5 -5 -3 -10 5 -5 8 -10 20 -10 25 0 6 5 3 10 -5
5 -8 10 -19 10 -25z m-3937 -437 c-11 -47 -11 -63 -2 -68 7 -5 9 -18 6 -32
-18 -71 -18 -98 -1 -98 14 0 16 -7 10 -42 -4 -24 -119 -574 -256 -1224 -138
-649 -250 -1184 -250 -1187 0 -4 -5 -7 -11 -7 -5 0 -8 4 -5 8 3 4 1 24 -3 44
-6 24 -1 71 14 152 21 108 21 116 5 116 -16 0 -17 5 -5 68 19 97 485 2305 490
2320 2 6 8 12 13 12 5 0 3 -28 -5 -62z m4107 27 c0 -5 -5 -3 -10 5 -5 8 -10
20 -10 25 0 6 5 3 10 -5 5 -8 10 -19 10 -25z m-2500 -1985 c29 -36 30 -40 12
-40 -23 0 -75 57 -66 71 10 16 22 10 54 -31z m495 -630 c4 -7 -74 -10 -227
-10 -416 0 -728 -11 -728 -27 0 -11 64 -12 365 -6 l365 6 0 -21 c0 -17 -6 -22
-27 -22 -16 0 -464 -7 -998 -15 -1175 -18 -1398 -18 -1390 -5 4 6 73 10 176
10 106 0 169 4 169 10 0 6 -18 10 -39 10 -22 0 -46 3 -55 6 -19 7 -21 34 -3
35 6 0 534 9 1172 18 638 10 1172 19 1187 20 15 0 30 -3 33 -9z"/>
<path d="M4070 9090 c-14 -5 -74 -23 -135 -41 -915 -270 -1736 -890 -2271
-1715 -69 -107 -224 -383 -224 -400 0 -10 1224 -868 1255 -880 6 -3 63 85 127
193 173 297 180 311 164 320 -10 6 52 119 263 474 152 257 463 782 691 1168
238 401 421 701 429 701 14 0 -37 49 -108 102 -26 19 -39 24 -48 16 -10 -8
-23 -3 -49 18 -62 50 -68 52 -94 44z"/>
<path d="M1377 6803 c-31 -61 -126 -303 -162 -412 -23 -70 -26 -88 -15 -104
19 -31 450 -576 461 -582 9 -6 979 326 979 335 0 3 -63 46 -139 96 -114 76
-139 89 -147 77 -9 -15 -154 82 -834 557 -52 36 -100 69 -107 73 -8 5 -20 -8
-36 -40z"/>
<path d="M1158 6194 c-28 -45 -145 -714 -125 -714 4 0 526 182 564 196 l21 9
-24 28 c-17 20 -28 26 -37 19 -9 -7 -56 46 -174 197 -207 263 -218 276 -225
265z"/>
<path d="M2490 5945 c-172 -64 -170 -63 -164 -79 7 -19 5 -20 -334 -137 -169
-58 -271 -98 -268 -105 8 -21 457 -584 466 -584 19 0 28 66 9 72 -7 2 77 181
205 436 119 237 216 434 216 437 0 8 -7 6 -130 -40z"/>
<path d="M1622 5643 c-10 -4 -10 -8 -1 -19 7 -8 10 -16 8 -18 -2 -2 -139 -51
-304 -108 l-300 -103 -8 -130 c-7 -118 -5 -291 5 -300 4 -4 1109 62 1113 67 1
2 -70 93 -159 204 -262 328 -329 409 -335 411 -3 1 -12 -1 -19 -4z"/>
<path d="M2015 4984 c-11 -2 -63 -6 -116 -9 -89 -6 -96 -8 -92 -26 3 -12 0
-19 -8 -19 -65 -1 -772 -49 -775 -53 -3 -3 0 -58 6 -124 39 -417 144 -839 302
-1218 48 -115 218 -458 224 -452 5 5 564 1884 564 1896 0 10 -55 13 -105 5z"/>
</g>
</svg>
