<svg width="163" height="40" viewBox="0 0 163 40" fill="none" xmlns="http://www.w3.org/2000/svg">
<g clip-path="url(#clip0_225_126)">
<path d="M35.1125 22.7019C35.1125 29.0238 29.9876 34.1487 23.6658 34.1487C17.3439 34.1487 12.219 29.0238 12.219 22.7019C12.219 16.38 17.3439 11.2552 23.6658 11.2552C29.9876 11.2552 35.1125 16.38 35.1125 22.7019Z" fill="#423E24"/>
<path fill-rule="evenodd" clip-rule="evenodd" d="M35.6052 22.7019C35.6052 29.2959 30.2598 34.6414 23.6658 34.6414C17.0718 34.6414 11.7263 29.2959 11.7263 22.7019C11.7263 16.1079 17.0718 10.7625 23.6658 10.7625C30.2598 10.7625 35.6052 16.1079 35.6052 22.7019ZM23.6658 34.1487C29.9876 34.1487 35.1125 29.0238 35.1125 22.7019C35.1125 16.38 29.9876 11.2552 23.6658 11.2552C17.3439 11.2552 12.219 16.38 12.219 22.7019C12.219 29.0238 17.3439 34.1487 23.6658 34.1487Z" fill="#A29F64"/>
<path d="M35.1125 22.7686C35.1125 29.0536 30.0602 34.1487 23.8277 34.1487C15.9588 34.1487 21.4624 29.1929 22.6652 28.1667C27.6289 23.9313 27.5256 19.7285 27.5228 12.3023C27.5227 12.1662 27.6304 12.0544 27.7641 12.0791C29.5059 12.4006 35.1125 15.7914 35.1125 22.7686Z" fill="#FDF300"/>
<path d="M10.9635 22.9897C9.46783 23.4268 8.1182 23.4515 7.05744 23.0611C5.99668 22.6707 5.26427 21.8796 4.93773 20.7717C4.61118 19.6638 4.70266 18.2803 5.20246 16.7675C5.70227 15.2548 6.59182 13.6691 7.77695 12.1784C8.96208 10.6876 10.3987 9.34723 11.9348 8.2991C13.4708 7.25098 15.0491 6.5341 16.5027 6.22436C17.9563 5.91461 19.2309 6.02351 20.1919 6.53954C21.1528 7.05557 21.7641 7.95952 21.9613 9.15572L19.9359 10.4642C19.7854 9.55062 19.3184 8.86022 18.5845 8.4661C17.8506 8.07199 16.8771 7.98881 15.7669 8.22538C14.6568 8.46195 13.4513 9.00946 12.2782 9.80997C11.105 10.6105 10.0078 11.6342 9.10262 12.7728C8.19748 13.9113 7.51808 15.1224 7.13636 16.2777C6.75463 17.4331 6.68476 18.4898 6.93416 19.336C7.18356 20.1821 7.74294 20.7863 8.55309 21.0845C9.36325 21.3827 10.394 21.3638 11.5363 21.0299L10.9635 22.9897Z" fill="#FEFDF9"/>
<path fill-rule="evenodd" clip-rule="evenodd" d="M11.3607 23.3869L11.1018 23.4626C9.54238 23.9184 8.07839 23.9619 6.88728 23.5235C5.67658 23.0778 4.83462 22.1645 4.46516 20.911C4.10136 19.6767 4.21501 18.1858 4.73467 16.613C5.25586 15.0355 6.17692 13.3993 7.39131 11.8718C8.60644 10.3433 10.0792 8.96878 11.6571 7.89213C13.2332 6.81665 14.8703 6.06847 16.4 5.74248C17.9263 5.41725 19.3294 5.5171 20.425 6.10548C21.5369 6.7026 22.2286 7.74782 22.4475 9.07561L22.5 9.3943L19.572 11.2859L19.4498 10.5443C19.3209 9.76233 18.9343 9.2132 18.3514 8.90018C17.7523 8.57841 16.9071 8.48618 15.8696 8.70727C14.8357 8.92759 13.689 9.4438 12.5559 10.217C11.4245 10.9889 10.3635 11.9785 9.48833 13.0794C8.61244 14.1811 7.96456 15.3417 7.60421 16.4323C7.24234 17.5276 7.19465 18.4769 7.40679 19.1967C7.61328 19.8972 8.0631 20.3791 8.72331 20.6221C9.40312 20.8723 10.3195 20.8723 11.3981 20.557L12.2617 20.3046L11.3607 23.3869ZM10.9635 22.9897C9.46786 23.4268 8.11823 23.4515 7.05747 23.0611C5.99672 22.6707 5.2643 21.8796 4.93776 20.7717C4.61121 19.6638 4.70269 18.2803 5.2025 16.7675C5.7023 15.2548 6.59185 13.6691 7.77698 12.1784C8.96211 10.6876 10.3987 9.34723 11.9348 8.29911C13.4708 7.25098 15.0492 6.53411 16.5027 6.22436C17.9563 5.91461 19.231 6.02352 20.1919 6.53955C21.1528 7.05557 21.7642 7.95953 21.9613 9.15573L19.9359 10.4642C19.9067 10.2866 19.8655 10.1175 19.8127 9.9573C19.5938 9.29342 19.1758 8.78362 18.5845 8.46611C17.8507 8.07199 16.8771 7.98882 15.7669 8.22539C14.6568 8.46196 13.4513 9.00947 12.2782 9.80998C11.105 10.6105 10.0078 11.6342 9.10265 12.7728C8.19751 13.9113 7.51812 15.1224 7.13639 16.2778C6.75466 17.4331 6.6848 18.4898 6.93419 19.336C7.18359 20.1821 7.74297 20.7863 8.55313 21.0845C9.23006 21.3336 10.061 21.3614 10.9824 21.1691C11.1637 21.1312 11.3485 21.0848 11.5364 21.0299L10.9635 22.9897Z" fill="#A29F64"/>
<path d="M26.8399 12.1206C27.2012 11.7408 27.8233 11.8527 27.9699 12.356C28.4418 13.9761 28.6028 16.0683 28.5166 17.8551C28.4107 20.0515 27.8627 22.3824 26.9119 24.6816C25.9611 26.9807 24.6308 29.1913 23.0162 31.1555C21.6472 32.8209 20.1024 34.2743 18.4626 35.443C18.0405 35.7439 17.4605 35.4986 17.3571 34.9906L17.0375 33.4202C16.9764 33.1203 17.1075 32.8152 17.3601 32.6424C18.7079 31.721 19.9778 30.5472 21.0945 29.1887C22.3277 27.6886 23.3436 26.0002 24.0698 24.2443C24.796 22.4883 25.2145 20.708 25.2955 19.0306C25.3669 17.5497 25.1737 16.1812 24.7285 15.0005C24.6223 14.7188 24.6737 14.3978 24.8812 14.1797L26.8399 12.1206Z" fill="#FEFDF9"/>
<path fill-rule="evenodd" clip-rule="evenodd" d="M28.443 12.2183C28.9343 13.9053 29.0968 16.0551 29.0088 17.8789C28.8998 20.1387 28.3369 22.5252 27.3672 24.8699C26.3974 27.215 25.0417 29.4675 23.3969 31.4684C22.0021 33.1651 20.4259 34.6488 18.7486 35.8442C18.0195 36.3639 17.0447 35.926 16.8743 35.0889L16.5547 33.5185C16.4523 33.0155 16.6735 32.5151 17.0821 32.2357C18.3887 31.3424 19.6246 30.201 20.714 28.8759C21.9169 27.4125 22.9074 25.766 23.6146 24.056C24.3219 22.3455 24.7255 20.6208 24.8034 19.0068C24.8721 17.5819 24.6852 16.2822 24.2675 15.1743C24.101 14.7327 24.1744 14.2079 24.5243 13.8401L26.483 11.7811C27.0668 11.1673 28.1746 11.2965 28.443 12.2183ZM27.97 12.356C27.8234 11.8527 27.2013 11.7408 26.8399 12.1207L24.8812 14.1797C24.6738 14.3978 24.6223 14.7188 24.7285 15.0005C25.1737 16.1812 25.3669 17.5497 25.2955 19.0306C25.2146 20.708 24.7961 22.4883 24.0699 24.2443C23.3437 26.0003 22.3277 27.6886 21.0946 29.1887C19.9778 30.5472 18.7079 31.721 17.3602 32.6425C17.1075 32.8152 16.9765 33.1203 17.0375 33.4202L17.3571 34.9906C17.4605 35.4986 18.0406 35.7439 18.4627 35.443C20.1024 34.2743 21.6472 32.8209 23.0163 31.1555C24.6309 29.1914 25.9611 26.9808 26.9119 24.6816C27.8628 22.3824 28.4107 20.0515 28.5167 17.8552C28.6029 16.0683 28.4418 13.9761 27.97 12.356Z" fill="#A29F64"/>
<path d="M33.0127 24.0055C32.5741 25.1377 31.4912 25.7737 30.5941 25.4261C29.6969 25.0785 29.3251 23.8789 29.7638 22.7468C30.2024 21.6147 31.2852 20.9787 32.1824 21.3263C33.0796 21.6739 33.4513 22.8734 33.0127 24.0055Z" fill="#FEFDF9"/>
<path d="M22.6327 23.5706C22.2487 24.7224 21.0493 25.36 19.9539 24.9947C18.8584 24.6295 18.2817 23.3997 18.6657 22.2479C19.0497 21.0961 20.2491 20.4585 21.3445 20.8237C22.44 21.189 23.0167 22.4188 22.6327 23.5706Z" fill="#FEFDF9"/>
</g>
<path d="M66.7801 29.8533C66.7801 30.7095 66.6166 31.5175 66.2895 32.2774C65.9721 33.0277 65.5296 33.6867 64.962 34.2542C64.4041 34.8121 63.7452 35.2546 62.9853 35.5817C62.2349 35.8991 61.4317 36.0578 60.5756 36.0578C59.8061 36.0578 59.0654 35.9232 58.3535 35.6538C57.6513 35.3845 57.0164 34.9901 56.4489 34.4706C55.8814 34.9901 55.2417 35.3845 54.5298 35.6538C53.818 35.9232 53.0773 36.0578 52.3078 36.0578C51.4516 36.0578 50.6436 35.8991 49.8837 35.5817C49.1334 35.2546 48.4744 34.8121 47.9069 34.2542C47.349 33.6867 46.9065 33.0277 46.5794 32.2774C46.262 31.5175 46.1033 30.7095 46.1033 29.8533V15.078H50.2444V29.8533C50.2444 30.1419 50.2973 30.4161 50.4031 30.6758C50.5089 30.9259 50.6532 31.1471 50.836 31.3395C51.0284 31.5223 51.2496 31.6666 51.4997 31.7724C51.7498 31.8782 52.0192 31.9311 52.3078 31.9311C52.5963 31.9311 52.8657 31.8782 53.1158 31.7724C53.3659 31.6666 53.5823 31.5223 53.7651 31.3395C53.9575 31.1471 54.1066 30.9259 54.2124 30.6758C54.3182 30.4161 54.3711 30.1419 54.3711 29.8533V15.078H58.5122V29.8533C58.5122 30.1419 58.5652 30.4161 58.671 30.6758C58.7768 30.9259 58.9211 31.1471 59.1038 31.3395C59.2962 31.5223 59.5175 31.6666 59.7676 31.7724C60.0177 31.8782 60.287 31.9311 60.5756 31.9311C60.8642 31.9311 61.1335 31.8782 61.3836 31.7724C61.6337 31.6666 61.8502 31.5223 62.0329 31.3395C62.2253 31.1471 62.3744 30.9259 62.4802 30.6758C62.5957 30.4161 62.6534 30.1419 62.6534 29.8533V15.078H66.7801V29.8533Z" fill="#423E24"/>
<path d="M84.8308 35.7692H83.8785L82.349 33.6482C81.9739 33.9849 81.5747 34.3023 81.1514 34.6005C80.7378 34.8891 80.3001 35.144 79.8384 35.3652C79.3766 35.5769 78.9005 35.7452 78.4099 35.8703C77.9289 35.9953 77.4383 36.0578 76.9381 36.0578C75.8511 36.0578 74.8267 35.8751 73.8647 35.5095C72.9124 35.144 72.0755 34.6149 71.3541 33.9223C70.6423 33.2201 70.0795 32.364 69.6659 31.354C69.2523 30.3439 69.0454 29.1944 69.0454 27.9054C69.0454 26.703 69.2523 25.6016 69.6659 24.6012C70.0795 23.5911 70.6423 22.7254 71.3541 22.0039C72.0755 21.2825 72.9124 20.7246 73.8647 20.3302C74.8267 19.9262 75.8511 19.7242 76.9381 19.7242C77.4383 19.7242 77.9337 19.7867 78.4243 19.9117C78.9149 20.0368 79.3911 20.2099 79.8528 20.4312C80.3145 20.6524 80.7522 20.9121 81.1658 21.2103C81.5891 21.5085 81.9835 21.8308 82.349 22.1771L83.8785 20.3446H84.8308V35.7692ZM80.8628 27.9054C80.8628 27.3667 80.757 26.8473 80.5454 26.3471C80.3434 25.8373 80.0644 25.39 79.7085 25.0052C79.3526 24.6108 78.9342 24.2982 78.4532 24.0673C77.9818 23.8268 77.4768 23.7066 76.9381 23.7066C76.3994 23.7066 75.8896 23.798 75.4087 23.9807C74.9373 24.1635 74.5237 24.4328 74.1678 24.7887C73.8215 25.1447 73.5473 25.5872 73.3453 26.1162C73.1433 26.6357 73.0423 27.2321 73.0423 27.9054C73.0423 28.5788 73.1433 29.18 73.3453 29.7091C73.5473 30.2285 73.8215 30.6662 74.1678 31.0221C74.5237 31.378 74.9373 31.6474 75.4087 31.8301C75.8896 32.0129 76.3994 32.1043 76.9381 32.1043C77.4768 32.1043 77.9818 31.9888 78.4532 31.758C78.9342 31.5175 79.3526 31.2049 79.7085 30.8201C80.0644 30.4257 80.3434 29.9784 80.5454 29.4782C80.757 28.9684 80.8628 28.4441 80.8628 27.9054Z" fill="#423E24"/>
<path d="M91.7856 35.7692H87.8465V20.3157H88.7988L90.0974 21.8164C90.7323 21.2392 91.4489 20.7967 92.2473 20.4889C93.0554 20.1715 93.8971 20.0127 94.7724 20.0127C95.7151 20.0127 96.6049 20.1955 97.4418 20.561C98.2787 20.917 99.0098 21.4124 99.635 22.0472C100.26 22.6725 100.751 23.4084 101.107 24.2549C101.472 25.0918 101.655 25.9864 101.655 26.9387V35.7692H97.716V26.9387C97.716 26.5347 97.639 26.1547 97.4851 25.7988C97.3312 25.4332 97.1196 25.1158 96.8502 24.8465C96.5809 24.5771 96.2682 24.3655 95.9123 24.2116C95.5564 24.0577 95.1764 23.9807 94.7724 23.9807C94.3588 23.9807 93.9692 24.0577 93.6037 24.2116C93.2381 24.3655 92.9207 24.5771 92.6514 24.8465C92.382 25.1158 92.1704 25.4332 92.0165 25.7988C91.8626 26.1547 91.7856 26.5347 91.7856 26.9387V35.7692Z" fill="#423E24"/>
<path d="M137.383 33.2853C136.426 32.9405 135.748 32.3218 135.348 31.4293C134.969 30.5246 134.991 29.4882 135.411 28.3199C135.77 27.326 136.269 26.5308 136.91 25.9343C137.572 25.3256 138.311 24.8432 139.127 24.4872C139.958 24.1365 140.813 23.8337 141.691 23.5788C142.569 23.3239 143.407 23.0446 144.205 22.7409C145.017 22.4425 145.725 22.0674 146.33 21.6156C146.942 21.1464 147.389 20.5194 147.672 19.7348C147.829 19.2988 147.868 18.8699 147.791 18.4481C147.728 18.0314 147.479 17.7447 147.044 17.588C146.565 17.4156 146.06 17.4306 145.529 17.633C144.997 17.8355 144.508 18.1913 144.063 18.7006C143.632 19.2151 143.275 19.8646 142.992 20.6493C142.602 21.7304 142.354 22.9212 142.246 24.2219C142.152 25.5277 142.18 26.8379 142.329 28.1524C142.499 29.4547 142.767 30.6645 143.135 31.7819C143.369 32.4966 143.656 33.132 143.997 33.688C144.358 34.2318 145.292 35.7057 145.579 36.0456L144.846 36.786C144.529 36.4356 143.572 34.9339 143.195 34.3448C142.823 33.7382 142.511 33.0348 142.259 32.2347C141.906 31.1225 141.643 29.8752 141.469 28.4927C141.31 27.1155 141.271 25.7225 141.352 24.3138C141.455 22.8928 141.713 21.6069 142.128 20.4561C142.492 19.4448 142.966 18.6304 143.548 18.013C144.152 17.3834 144.79 16.9534 145.463 16.723C146.136 16.4926 146.777 16.4871 147.386 16.7065C148.068 16.9521 148.487 17.3791 148.645 17.9875C148.809 18.5784 148.772 19.2052 148.533 19.8678C148.213 20.7571 147.731 21.4799 147.088 22.0363C146.466 22.5805 145.75 23.0219 144.94 23.3604C144.13 23.699 143.29 24.007 142.42 24.2846C141.556 24.5447 140.715 24.8327 139.896 25.1486C139.093 25.4697 138.376 25.891 137.745 26.4125C137.136 26.9218 136.677 27.6037 136.369 28.4581C136.024 29.4171 136.003 30.247 136.308 30.9478C136.613 31.6485 137.135 32.1321 137.874 32.3986C138.527 32.6337 139.277 32.6674 140.124 32.4997C140.985 32.3372 141.808 32.0326 142.591 31.586C143.618 31.0103 144.596 30.3186 145.526 29.511C146.477 28.6912 147.386 27.7582 148.255 26.7118L149.147 27.0331C148.189 28.1458 147.176 29.16 146.109 30.0757C145.056 30.9966 143.997 31.7772 142.93 32.4175C142.016 32.9548 141.068 33.3126 140.086 33.4908C139.125 33.6568 138.224 33.5883 137.383 33.2853Z" fill="#423E24"/>
<path d="M125.306 35.8889L125.72 33.9386H130.507L133.61 18.4245H128.764L129.207 16.5037H141.205L140.791 18.4245H135.915L132.783 33.9386H137.688L137.245 35.8889H125.306Z" fill="#423E24"/>
<path d="M117.313 36.2435C115.501 36.2435 114.102 35.7215 113.117 34.6774C112.151 33.6135 111.669 32.1853 111.669 30.3925C111.669 29.9197 111.688 29.4764 111.728 29.0627C111.787 28.6293 111.866 28.1565 111.964 27.6443L114.181 16.5037H116.486L114.269 27.7034C114.151 28.1565 114.062 28.5801 114.003 28.9741C113.964 29.3681 113.944 29.7522 113.944 30.1266C113.944 31.4268 114.25 32.4414 114.86 33.1703C115.491 33.8992 116.407 34.2636 117.608 34.2636C118.357 34.2636 119.047 34.0863 119.677 33.7317C120.307 33.3574 120.869 32.7467 121.361 31.8996C121.854 31.0328 122.248 29.8803 122.543 28.4422L124.907 16.5037H127.153L124.73 28.6786C124.356 30.5698 123.814 32.067 123.105 33.1703C122.396 34.2538 121.549 35.0418 120.564 35.5343C119.579 36.0071 118.495 36.2435 117.313 36.2435Z" fill="#423E24"/>
<path d="M144.913 36.7607L147.78 22.3991H149.612L149.257 25.3246H149.375C149.947 24.7533 150.567 24.2214 151.237 23.7289C151.907 23.2166 152.616 22.8128 153.365 22.5173C154.133 22.2021 154.951 22.0445 155.818 22.0445C157.078 22.0445 158.004 22.3695 158.595 23.0196C159.206 23.6698 159.511 24.5366 159.511 25.6201C159.511 26.0338 159.482 26.4377 159.423 26.8317C159.383 27.206 159.324 27.5901 159.245 27.9841L157.472 36.7607H155.197L156.911 28.2206C157.009 27.8462 157.078 27.5015 157.118 27.1863C157.157 26.8514 157.177 26.5263 157.177 26.2111C157.177 25.5019 156.98 24.9601 156.586 24.5858C156.212 24.1918 155.65 23.9948 154.901 23.9948C153.936 23.9948 152.961 24.3002 151.976 24.9109C150.991 25.5216 150.006 26.3786 149.021 27.4818L147.159 36.7607H144.913Z" fill="#423E24"/>
<defs>
<clipPath id="clip0_225_126">
<rect width="34.0741" height="34.0741" fill="white" transform="translate(2.96295 2.96295)"/>
</clipPath>
</defs>
</svg>
